<svg xmlns="http://www.w3.org/2000/svg" xmlns:xlink="http://www.w3.org/1999/xlink" width="500" zoomAndPan="magnify" viewBox="0 0 375 374.999991" height="500" preserveAspectRatio="xMidYMid meet" version="1.0"><defs><clipPath id="id1"><path d="M 45.464844 16.058594 L 329.714844 16.058594 L 329.714844 358.808594 L 45.464844 358.808594 Z M 45.464844 16.058594 " clip-rule="nonzero"/></clipPath></defs><rect x="-37.5" width="450" fill="#ffffff" y="-37.499999" height="449.999989" fill-opacity="1"/><rect x="-37.5" width="450" fill="#f4f6fc" y="-37.499999" height="449.999989" fill-opacity="1"/><rect x="-37.5" width="450" fill="#ffffff" y="-37.499999" height="449.999989" fill-opacity="1"/><rect x="-37.5" width="450" fill="#f4f6fc" y="-37.499999" height="449.999989" fill-opacity="1"/><g clip-path="url(#id1)"><path fill="#000000" d="M 327.78125 277.183594 L 209.789062 26.871094 C 209.054688 25.332031 208.128906 23.914062 207.015625 22.625 C 205.898438 21.332031 204.628906 20.214844 203.210938 19.265625 C 201.792969 18.316406 200.273438 17.574219 198.652344 17.039062 C 197.03125 16.5 195.367188 16.1875 193.664062 16.097656 C 191.953125 15.984375 190.261719 16.101562 188.585938 16.453125 C 186.910156 16.800781 185.3125 17.371094 183.792969 18.15625 C 182.273438 18.941406 180.886719 19.921875 179.636719 21.085938 C 178.386719 22.253906 177.3125 23.566406 176.421875 25.027344 L 48.449219 232.089844 C 47.964844 232.871094 47.535156 233.675781 47.167969 234.515625 C 46.796875 235.355469 46.488281 236.214844 46.242188 237.097656 C 45.996094 237.976562 45.8125 238.871094 45.691406 239.78125 C 45.570312 240.6875 45.515625 241.601562 45.527344 242.515625 C 45.535156 243.433594 45.609375 244.34375 45.746094 245.246094 C 45.886719 246.152344 46.089844 247.042969 46.355469 247.921875 C 46.621094 248.796875 46.945312 249.652344 47.332031 250.480469 C 47.71875 251.3125 48.160156 252.109375 48.660156 252.878906 L 111.230469 349.671875 C 111.820312 350.574219 112.476562 351.421875 113.199219 352.21875 C 113.925781 353.015625 114.707031 353.75 115.550781 354.421875 C 116.394531 355.09375 117.285156 355.695312 118.222656 356.222656 C 119.164062 356.75 120.136719 357.199219 121.148438 357.570312 C 122.160156 357.945312 123.195312 358.230469 124.253906 358.4375 C 125.3125 358.644531 126.378906 358.761719 127.457031 358.796875 C 128.535156 358.832031 129.609375 358.78125 130.675781 358.640625 C 131.746094 358.503906 132.796875 358.28125 133.832031 357.972656 L 315.402344 304.320312 C 316.769531 303.921875 318.078125 303.382812 319.332031 302.703125 C 320.582031 302.023438 321.746094 301.214844 322.824219 300.285156 C 323.902344 299.355469 324.867188 298.324219 325.722656 297.1875 C 326.582031 296.050781 327.304688 294.835938 327.902344 293.542969 C 328.488281 292.253906 328.929688 290.921875 329.222656 289.539062 C 329.519531 288.15625 329.660156 286.761719 329.652344 285.347656 C 329.640625 283.933594 329.480469 282.539062 329.167969 281.160156 C 328.851562 279.78125 328.394531 278.453125 327.789062 277.175781 Z M 301.363281 287.921875 L 147.289062 333.433594 C 142.585938 334.832031 138.074219 330.761719 139.054688 326.019531 L 194.101562 62.71875 C 195.128906 57.792969 201.941406 57.011719 204.09375 61.570312 L 305.996094 277.742188 C 306.21875 278.222656 306.390625 278.722656 306.507812 279.242188 C 306.625 279.761719 306.683594 280.285156 306.6875 280.816406 C 306.6875 281.347656 306.636719 281.875 306.523438 282.394531 C 306.410156 282.914062 306.246094 283.414062 306.023438 283.898438 C 305.804688 284.382812 305.535156 284.835938 305.214844 285.261719 C 304.894531 285.6875 304.535156 286.074219 304.132812 286.421875 C 303.730469 286.769531 303.292969 287.066406 302.824219 287.320312 C 302.355469 287.574219 301.867188 287.773438 301.355469 287.917969 Z M 301.363281 287.921875 " fill-opacity="1" fill-rule="nonzero"/></g></svg>