<svg xmlns="http://www.w3.org/2000/svg" xmlns:xlink="http://www.w3.org/1999/xlink" width="500" zoomAndPan="magnify" viewBox="0 0 375 374.999991" height="500" preserveAspectRatio="xMidYMid meet" version="1.0"><defs><g/><clipPath id="id1"><path d="M 31.320312 23.570312 L 343.320312 23.570312 L 343.320312 351.320312 L 31.320312 351.320312 Z M 31.320312 23.570312 " clip-rule="nonzero"/></clipPath></defs><rect x="-37.5" width="450" fill="#ffffff" y="-37.499999" height="449.999989" fill-opacity="1"/><rect x="-37.5" width="450" fill="#272626" y="-37.499999" height="449.999989" fill-opacity="1"/><rect x="-37.5" width="450" fill="#ffffff" y="-37.499999" height="449.999989" fill-opacity="1"/><rect x="-37.5" width="450" fill="#272626" y="-37.499999" height="449.999989" fill-opacity="1"/><g clip-path="url(#id1)"><path fill="#ffffff" d="M 232.460938 23.734375 L 232.460938 28.273438 L 260.453125 28.273438 C 270.851562 28.273438 278.375 29.714844 283.132812 32.484375 C 287.890625 35.25 290.214844 40.121094 290.214844 47.097656 C 290.140625 49.664062 289.882812 52.210938 289.4375 54.738281 L 295.082031 56.621094 C 298.511719 46.988281 302.382812 40.011719 306.699219 35.914062 C 311.011719 31.816406 318.867188 28.273438 327.71875 28.273438 L 343.320312 28.273438 L 343.320312 23.734375 Z M 208.671875 311.292969 C 202.476562 287.082031 194.070312 259.695312 183.449219 229.132812 L 127.574219 66.363281 C 124.476562 57.839844 122.929688 50.753906 122.929688 45.328125 C 122.929688 39.902344 125.140625 34.476562 129.566406 32.039062 C 133.992188 29.605469 140.410156 28.273438 148.597656 28.273438 L 164.195312 28.273438 L 164.195312 23.734375 L 31.320312 23.734375 L 31.320312 28.273438 L 36.851562 28.273438 C 44.707031 28.273438 51.125 30.046875 56.101562 33.367188 C 61.082031 36.691406 65.066406 43 68.382812 52.191406 L 173.378906 351.15625 L 199.933594 351.15625 L 218.519531 293.6875 L 214.316406 292.359375 Z M 208.671875 311.292969 " fill-opacity="1" fill-rule="nonzero"/></g><g fill="#ffffff" fill-opacity="1"><g transform="translate(234.765021, 264.380549)"><g><path d="M 1.425781 -31.976562 C 1.371094 -31.8125 1.367188 -31.65625 1.425781 -31.5 C 3.582031 -24.988281 3.925781 -15.78125 2.96875 -12.910156 C 2.476562 -11.433594 1.84375 -10.984375 0.800781 -11.332031 C -0.921875 -11.910156 -2.570312 -14.078125 -3.765625 -15.683594 C -4.488281 -16.65625 -4.964844 -17.269531 -5.4375 -17.429688 C -5.929688 -17.59375 -6.429688 -17.324219 -6.59375 -16.832031 C -6.742188 -16.382812 -6.546875 -15.542969 -5.640625 -12.664062 C -6.726562 -12.410156 -7.339844 -11.796875 -7.78125 -10.484375 C -8.863281 -7.246094 -6.378906 3.066406 -3.121094 4.15625 C -2.113281 4.488281 -1.210938 3.972656 -0.835938 2.84375 C 0.0546875 0.179688 -2.273438 -7.117188 -3.792969 -11.980469 C -3.902344 -12.335938 -4.011719 -12.691406 -4.128906 -13.023438 C -4.265625 -13.433594 -4.074219 -13.53125 -3.792969 -13.210938 C -2.625 -11.792969 -1.25 -10.378906 0.308594 -9.855469 C 2.214844 -9.21875 3.675781 -10.121094 4.445312 -12.417969 C 5.554688 -15.738281 4.894531 -25.507812 2.917969 -31.933594 C 2.84375 -32.1875 2.65625 -32.386719 2.414062 -32.46875 C 2.023438 -32.597656 1.558594 -32.367188 1.425781 -31.976562 Z M -5.183594 -11.167969 C -3.167969 -4.773438 -1.65625 0.382812 -2.3125 2.351562 C -2.394531 2.597656 -2.542969 2.707031 -2.789062 2.625 C -4.699219 1.988281 -7.324219 -6.9375 -6.304688 -9.992188 C -6.023438 -10.832031 -5.816406 -11.035156 -5.183594 -11.167969 Z M -5.183594 -11.167969 "/></g></g></g><g fill="#ffffff" fill-opacity="1"><g transform="translate(243.818154, 237.275589)"><g><path d="M -0.707031 2.660156 C -0.609375 2.371094 -0.710938 1.859375 -1.195312 0.375 C -1.265625 0.171875 -1.324219 -0.0546875 -1.40625 -0.289062 C -2.808594 -4.765625 -5.632812 -13.847656 -4.707031 -16.613281 C -4.632812 -16.839844 -4.453125 -16.894531 -4.269531 -16.832031 C -3.898438 -16.710938 -2.636719 -15.921875 -1.371094 -15.136719 C -0.257812 -14.445312 0.855469 -13.753906 1.429688 -13.5625 C 2.679688 -13.144531 3.726562 -13.75 4.199219 -15.167969 C 5.335938 -18.570312 4.890625 -25.214844 3.019531 -32.242188 C 2.972656 -32.507812 2.769531 -32.714844 2.523438 -32.796875 C 2.113281 -32.933594 1.675781 -32.714844 1.535156 -32.304688 C 1.488281 -32.160156 1.480469 -32.003906 1.523438 -31.855469 C 3.296875 -25.152344 3.757812 -18.753906 2.722656 -15.660156 C 2.519531 -15.042969 2.3125 -14.90625 1.921875 -15.039062 C 1.511719 -15.175781 0.550781 -15.769531 -0.542969 -16.453125 C -1.808594 -17.242188 -3.222656 -18.125 -4.0625 -18.40625 C -5.007812 -18.71875 -5.800781 -18.253906 -6.15625 -17.1875 C -6.929688 -14.871094 -6.023438 -9.941406 -3.253906 -0.972656 C -3.152344 -0.597656 -3.34375 -0.570312 -3.511719 -0.808594 C -5.328125 -3.351562 -8.636719 -8.808594 -10.183594 -13.453125 C -10.265625 -13.683594 -10.457031 -13.863281 -10.683594 -13.9375 C -11.09375 -14.074219 -11.53125 -13.855469 -11.667969 -13.445312 C -11.722656 -13.28125 -11.714844 -13.097656 -11.675781 -12.949219 C -9.363281 -6.15625 -3.378906 2.472656 -2.195312 3.164062 C -1.589844 3.527344 -0.917969 3.292969 -0.707031 2.660156 Z M -0.707031 2.660156 "/></g></g></g><g fill="#ffffff" fill-opacity="1"><g transform="translate(252.974013, 209.863071)"><g><path d="M -0.160156 -26.535156 C -0.214844 -26.371094 -0.210938 -26.1875 -0.148438 -26.03125 C 0.867188 -23.207031 2.960938 -15.007812 5.511719 -4.972656 C 6.359375 -1.707031 7.144531 1.40625 7.894531 4.34375 C 3.789062 -2.8125 0.878906 -7.273438 -1.175781 -10.328125 C -3.519531 -13.824219 -4.1875 -14.617188 -5.089844 -14.917969 C -6.074219 -15.246094 -7.027344 -14.449219 -7.546875 -12.890625 C -9.210938 -7.90625 -6.476562 3.421875 -3.316406 4.476562 C -2.230469 4.839844 -1.308594 4.394531 -0.945312 3.308594 C -0.460938 1.851562 -0.941406 -1.820312 -2.488281 -8.648438 C -2.585938 -9.046875 -2.257812 -9.140625 -2.023438 -8.8125 C 0.0429688 -5.726562 3.8125 0.0429688 9.460938 10.292969 L 9.425781 10.257812 C 16.8125 38.367188 20.476562 48.957031 23.203125 49.867188 C 24.578125 50.328125 25.808594 49.644531 26.296875 48.1875 C 27.472656 44.660156 25.289062 37.550781 19.542969 26.171875 C 16.265625 19.675781 13.402344 14.253906 10.910156 9.707031 L 10.917969 9.753906 C 9.71875 5.160156 8.40625 0.140625 7.011719 -5.363281 C 4.460938 -15.398438 2.367188 -23.664062 1.300781 -26.550781 C 1.21875 -26.78125 1.046875 -26.953125 0.824219 -27.027344 C 0.414062 -27.164062 -0.0234375 -26.945312 -0.160156 -26.535156 Z M -4.019531 -8.292969 C -2.574219 -2.046875 -2.050781 1.707031 -2.421875 2.816406 C -2.503906 3.0625 -2.558594 3.089844 -2.824219 3 C -5.101562 2.238281 -7.382812 -8.460938 -6.070312 -12.398438 C -5.960938 -12.726562 -5.816406 -13.15625 -5.582031 -13.441406 C -5.480469 -13.410156 -5.386719 -13.355469 -5.277344 -13.273438 C -5.242188 -13.167969 -5.214844 -13.046875 -5.1875 -12.921875 C -4.957031 -12.046875 -4.527344 -10.535156 -4.019531 -8.292969 Z M 18.160156 26.894531 C 23.589844 37.667969 25.832031 44.660156 24.820312 47.695312 C 24.601562 48.351562 24.230469 48.570312 23.699219 48.390625 C 21.933594 47.800781 18.414062 37.667969 12.65625 16.214844 C 14.328125 19.394531 16.171875 22.949219 18.160156 26.894531 Z M 18.160156 26.894531 "/></g></g></g><g fill="#ffffff" fill-opacity="1"><g transform="translate(260.287745, 187.965856)"><g><path d="M 0.839844 -30.417969 C 0.785156 -30.253906 0.777344 -30.097656 0.839844 -29.941406 C 2.523438 -24.066406 3.332031 -14.203125 2.371094 -11.332031 C 1.878906 -9.855469 1.25 -9.40625 0.203125 -9.753906 C -1.558594 -10.34375 -3.15625 -13.066406 -4.234375 -14.953125 C -5.507812 -17.15625 -6.410156 -17.59375 -6.847656 -16.28125 C -7.050781 -15.664062 -6.402344 -14.058594 -4.976562 -10.277344 C -2.765625 -4.34375 -1.859375 -1.121094 -2.1875 -0.136719 C -2.222656 -0.0351562 -2.324219 0.0664062 -2.550781 -0.0078125 C -3.65625 -0.378906 -5.390625 -3.03125 -7.152344 -7.039062 L -7.140625 -7.011719 C -7.1875 -7.210938 -7.378906 -7.386719 -7.605469 -7.460938 C -7.992188 -7.59375 -8.457031 -7.359375 -8.589844 -6.972656 C -8.648438 -6.785156 -8.628906 -6.574219 -8.546875 -6.410156 C -6.601562 -1.863281 -4.601562 0.949219 -2.917969 1.507812 C -1.914062 1.84375 -1.066406 1.421875 -0.738281 0.4375 C -0.183594 -1.222656 -2.210938 -7.164062 -3.371094 -10.308594 C -3.515625 -10.699219 -3.351562 -10.78125 -3.054688 -10.433594 C -2.078125 -9.265625 -1.273438 -8.605469 -0.289062 -8.277344 C 1.617188 -7.640625 3.082031 -8.542969 3.847656 -10.839844 C 4.957031 -14.160156 3.980469 -24.605469 2.328125 -30.378906 C 2.253906 -30.628906 2.070312 -30.828125 1.824219 -30.910156 C 1.433594 -31.039062 0.96875 -30.808594 0.839844 -30.417969 Z M 0.839844 -30.417969 "/></g></g></g><g fill="#ffffff" fill-opacity="1"><g transform="translate(268.799884, 162.480625)"><g><path d="M 1.425781 -31.976562 C 1.371094 -31.8125 1.367188 -31.65625 1.425781 -31.5 C 3.582031 -24.988281 3.925781 -15.78125 2.96875 -12.910156 C 2.476562 -11.433594 1.84375 -10.984375 0.800781 -11.332031 C -0.921875 -11.910156 -2.570312 -14.078125 -3.765625 -15.683594 C -4.488281 -16.65625 -4.964844 -17.269531 -5.4375 -17.429688 C -5.929688 -17.59375 -6.429688 -17.324219 -6.59375 -16.832031 C -6.742188 -16.382812 -6.546875 -15.542969 -5.640625 -12.664062 C -6.726562 -12.410156 -7.339844 -11.796875 -7.78125 -10.484375 C -8.863281 -7.246094 -6.378906 3.066406 -3.121094 4.15625 C -2.113281 4.488281 -1.210938 3.972656 -0.835938 2.84375 C 0.0546875 0.179688 -2.273438 -7.117188 -3.792969 -11.980469 C -3.902344 -12.335938 -4.011719 -12.691406 -4.128906 -13.023438 C -4.265625 -13.433594 -4.074219 -13.53125 -3.792969 -13.210938 C -2.625 -11.792969 -1.25 -10.378906 0.308594 -9.855469 C 2.214844 -9.21875 3.675781 -10.121094 4.445312 -12.417969 C 5.554688 -15.738281 4.894531 -25.507812 2.917969 -31.933594 C 2.84375 -32.1875 2.65625 -32.386719 2.414062 -32.46875 C 2.023438 -32.597656 1.558594 -32.367188 1.425781 -31.976562 Z M -5.183594 -11.167969 C -3.167969 -4.773438 -1.65625 0.382812 -2.3125 2.351562 C -2.394531 2.597656 -2.542969 2.707031 -2.789062 2.625 C -4.699219 1.988281 -7.324219 -6.9375 -6.304688 -9.992188 C -6.023438 -10.832031 -5.816406 -11.035156 -5.183594 -11.167969 Z M -5.183594 -11.167969 "/></g></g></g><g fill="#ffffff" fill-opacity="1"><g transform="translate(277.853017, 135.375665)"><g><path d="M 10.609375 2.222656 C 12.503906 -3.457031 7.429688 -23.136719 3.800781 -34.648438 C 3.738281 -34.875 3.554688 -35.074219 3.308594 -35.15625 C 2.898438 -35.292969 2.460938 -35.074219 2.324219 -34.664062 C 2.269531 -34.5 2.261719 -34.34375 2.324219 -34.183594 C 5.917969 -22.707031 10.878906 -3.5 9.132812 1.726562 C 8.824219 2.652344 8.433594 2.863281 7.574219 2.574219 C 4.949219 1.699219 1.945312 -4.457031 -1.027344 -10.507812 C -3.640625 -15.847656 -6.242188 -21.160156 -8.578125 -21.941406 C -9.460938 -22.234375 -10.425781 -21.667969 -11.691406 -20.953125 C -12.039062 -20.726562 -12.4375 -20.496094 -12.847656 -20.289062 C -15.652344 -25.464844 -18.035156 -28.769531 -19.308594 -29.195312 C -20.128906 -29.46875 -20.777344 -29.160156 -21.042969 -28.359375 C -22.042969 -25.367188 -19.207031 -17.148438 -16.867188 -16.367188 C -16.066406 -16.101562 -15.207031 -16.496094 -13.324219 -17.964844 C -11.15625 -13.820312 -8.984375 -8.925781 -7.625 -4.394531 C -7.550781 -4.140625 -7.367188 -3.941406 -7.121094 -3.859375 C -6.710938 -3.722656 -6.273438 -3.941406 -6.136719 -4.351562 C -6.082031 -4.515625 -6.074219 -4.671875 -6.136719 -4.828125 C -7.390625 -8.988281 -9.738281 -14.304688 -12.121094 -18.910156 C -10.433594 -20.214844 -9.605469 -20.644531 -9.074219 -20.464844 C -7.371094 -19.898438 -5.035156 -15.152344 -2.421875 -9.8125 C 0.550781 -3.757812 3.839844 2.96875 7.078125 4.050781 C 8.761719 4.613281 10.027344 3.964844 10.609375 2.222656 Z M -14.078125 -19.332031 C -15.398438 -18.316406 -16.230469 -17.796875 -16.375 -17.84375 C -17.707031 -18.289062 -19.964844 -24.832031 -19.707031 -27.117188 C -19.65625 -27.394531 -19.5 -27.527344 -19.28125 -27.363281 C -18.132812 -26.363281 -15.496094 -21.972656 -14.078125 -19.332031 Z M -14.078125 -19.332031 "/></g></g></g><g fill="#ffffff" fill-opacity="1"><g transform="translate(287.796404, 105.605298)"><g><path d="M 0.75 -30.015625 C 0.703125 -29.871094 0.6875 -29.695312 0.734375 -29.566406 C 2.882812 -22.007812 3.015625 -13.054688 1.921875 -9.773438 C 1.421875 -8.277344 0.796875 -7.847656 -0.246094 -8.195312 C -0.945312 -8.429688 -2.175781 -9.59375 -3.882812 -11.644531 C -3.636719 -11.699219 -3.4375 -11.882812 -3.347656 -12.148438 C -3.21875 -12.539062 -3.417969 -12.96875 -3.800781 -13.121094 C -4.257812 -13.320312 -4.75 -13.414062 -5.269531 -13.359375 C -5.835938 -14.121094 -6.472656 -14.945312 -7.113281 -15.824219 C -15.386719 -33.96875 -28.824219 -59.722656 -31.367188 -60.570312 C -32.269531 -60.871094 -32.960938 -60.511719 -33.296875 -59.503906 C -34.453125 -56.039062 -18.9375 -29.550781 -8.6875 -15.480469 L -8.691406 -15.53125 C -8.179688 -14.402344 -7.695312 -13.328125 -7.230469 -12.328125 C -7.574219 -11.917969 -7.839844 -11.460938 -8.027344 -10.90625 C -9.441406 -6.664062 -6.105469 1.765625 -2.496094 2.972656 C -1.59375 3.273438 -0.835938 2.84375 -0.507812 1.859375 C -0.191406 0.914062 -1.449219 -2.832031 -4.128906 -9.128906 C -4.316406 -9.53125 -4.128906 -9.675781 -3.828125 -9.347656 C -2.46875 -7.820312 -1.417969 -6.945312 -0.742188 -6.71875 C 1.164062 -6.082031 2.628906 -6.984375 3.394531 -9.28125 C 4.574219 -12.808594 4.457031 -22.144531 2.253906 -29.945312 C 2.164062 -30.226562 1.980469 -30.425781 1.734375 -30.507812 C 1.324219 -30.644531 0.886719 -30.425781 0.75 -30.015625 Z M -31.820312 -59.011719 C -31.792969 -59.09375 -31.746094 -59.101562 -31.683594 -59.082031 C -30.125 -58.558594 -17.628906 -34.21875 -12.617188 -23.835938 C -22.734375 -39.136719 -32.496094 -56.984375 -31.820312 -59.011719 Z M -1.957031 1.285156 C -1.988281 1.386719 -2.042969 1.480469 -2.207031 1.425781 C -4.773438 0.570312 -7.6875 -7.011719 -6.550781 -10.414062 L -6.480469 -10.621094 C -3.367188 -3.632812 -1.757812 0.6875 -1.957031 1.285156 Z M -1.957031 1.285156 "/></g></g></g></svg>